<svg xmlns="http://www.w3.org/2000/svg" viewBox="0 0 48 48"><path d="M 31.970703 6 A 2.0002 2.0002 0 0 0 30.585938 6.5859375 L 23.585938 13.585938 A 2.0002 2.0002 0 1 0 26.414062 16.414062 L 30 12.828125 L 30 40 A 2.0002 2.0002 0 1 0 34 40 L 34 12.828125 L 37.585938 16.414062 A 2.0002 2.0002 0 1 0 40.414062 13.585938 L 33.414062 6.5859375 A 2.0002 2.0002 0 0 0 31.970703 6 z M 13.375 7.0058594 C 13.257547 7.01575 13.139641 7.0379219 13.025391 7.0761719 L 10.025391 8.0761719 C 9.2393906 8.3381719 8.8141719 9.1896094 9.0761719 9.9746094 C 9.3381719 10.760609 10.190609 11.188828 10.974609 10.923828 L 12 10.580078 L 12 19.5 C 12 20.329 12.671 21 13.5 21 C 14.329 21 15 20.329 15 19.5 L 15 8.5 C 15 8.018 14.767953 7.5652031 14.376953 7.2832031 C 14.082953 7.0717031 13.727359 6.9761875 13.375 7.0058594 z M 13 27 C 10.344 27 8.387625 28.682109 8.015625 31.287109 C 7.898625 32.107109 8.4671094 32.867375 9.2871094 32.984375 C 10.106109 33.102375 10.867375 32.533891 10.984375 31.712891 C 11.096375 30.931891 11.537 30 13 30 C 14.103 30 15 30.897 15 32 C 15 33.103 14.103 34 13 34 C 10.592 34 8 35.721 8 39.5 C 8 40.329 8.672 41 9.5 41 L 16.5 41 C 17.329 41 18 40.329 18 39.5 C 18 38.671 17.329 38 16.5 38 L 11.308594 38 C 11.781594 37.093 12.664 37 13 37 C 15.757 37 18 34.757 18 32 C 18 29.243 15.757 27 13 27 z" fill="white"></path></svg>