<svg xmlns="http://www.w3.org/2000/svg" viewBox="0 0 48 48"><path d="M 32.970703 6 A 2.0002 2.0002 0 0 0 31.585938 6.5859375 L 24.585938 13.585938 A 2.0002 2.0002 0 1 0 27.414062 16.414062 L 31 12.828125 L 31 40 A 2.0002 2.0002 0 1 0 35 40 L 35 12.828125 L 38.585938 16.414062 A 2.0002 2.0002 0 1 0 41.414062 13.585938 L 34.414062 6.5859375 A 2.0002 2.0002 0 0 0 32.970703 6 z M 14.5 7 C 13.891 7 13.342328 7.3686406 13.111328 7.9316406 L 8.6113281 18.931641 C 8.2973281 19.698641 8.6646406 20.573719 9.4316406 20.886719 C 10.198641 21.202719 11.075672 20.834406 11.388672 20.066406 L 11.824219 19 L 17.175781 19 L 17.611328 20.066406 C 17.849328 20.647406 18.410953 21 19.001953 21 C 19.190953 21 19.382359 20.964672 19.568359 20.888672 C 20.334359 20.575672 20.702672 19.698641 20.388672 18.931641 L 15.888672 7.9316406 C 15.658672 7.3676406 15.109 7 14.5 7 z M 14.5 12.460938 L 15.947266 16 L 13.052734 16 L 14.5 12.460938 z M 11 27 C 10.172 27 9.5 27.671 9.5 28.5 C 9.5 29.329 10.172 30 11 30 L 15.267578 30 L 9.7363281 38.695312 C 9.4423281 39.157312 9.4235 39.742656 9.6875 40.222656 C 9.9495 40.702656 10.453953 41 11.001953 41 L 18.001953 41 C 18.829953 41 19.501953 40.329 19.501953 39.5 C 19.501953 38.671 18.829953 38 18.001953 38 L 13.732422 38 L 19.265625 29.304688 C 19.559625 28.842688 19.578453 28.257344 19.314453 27.777344 C 19.052453 27.297344 18.548 27 18 27 L 11 27 z" fill="white"></path></svg>